#!OML:ASF F:\VICON\USERDATA\INSTALL\rory3\rory3.ASF
:FULLY-SPECIFIED
:DEGREES
48
root 0.299174 18.2244 -15.2187 -2.71979 -1.99717 -4.39896
lowerback 10.7146 0.144669 3.63288
upperback 0.431832 0.795196 2.77034
thorax -5.55709 0.332414 0.733414
lowerneck -16.5116 -2.79766 -1.57677
upperneck 21.051 -3.20479 -1.14534
head 9.37137 -1.75177 -0.543573
rclavicle 8.4732e-015 -2.34566e-014
rhumerus -31.7483 -21.3621 -75.7549
rradius 22.1423
rwrist 5.4066
rhand -13.9956 19.658
rfingers 7.12502
rthumb 12.1334 -9.97021
lclavicle 8.4732e-015 -2.34566e-014
lhumerus -29.9579 2.50985 82.7888
lradius 26.3817
lwrist 5.72617
lhand -25.5875 22.0987
lfingers 7.12502
lthumb 0.944141 52.0763
rfemur -10.3546 2.53925 30.5112
rtibia 27.8989
rfoot -14.3981 -3.09363
rtoes 3.07742
lfemur -17.3608 2.43541 -14.9484
ltibia 68.4398
lfoot -1.93695 -5.19079
ltoes -3.44538
49
root 0.294011 18.2201 -15.0628 -2.5359 -2.40117 -4.65517
lowerback 10.6983 0.306323 3.94696
upperback 0.421037 1.04947 2.80306
thorax -5.5514 0.449596 0.55279
lowerneck -16.3945 -2.78234 -1.60385
upperneck 20.858 -3.20021 -1.05398
head 9.28463 -1.74107 -0.502759
rclavicle 1.13804e-014 2.26615e-014
rhumerus -31.1769 -20.7451 -76.1635
rradius 22.6399
rwrist 4.9873
rhand -13.8123 19.9601
rfingers 7.12502
rthumb 12.3101 -9.6575
lclavicle 1.13804e-014 2.26615e-014
lhumerus -30.3339 2.64703 82.8287
lradius 26.7471
lwrist 5.75992
lhand -25.1413 23.3073
lfingers 7.12502
lthumb 1.37513 53.2826
rfemur -10.1356 2.75178 30.8451
rtibia 28.2032
rfoot -15.0522 -2.77411
rtoes 0.974458
lfemur -18.5572 2.84371 -14.7043
ltibia 68.0503
lfoot -3.12408 -4.5668
ltoes -3.50374
50
root 0.290155 18.2144 -14.9041 -2.59904 -2.82587 -4.83086
lowerback 10.9399 0.408915 4.11116
upperback 0.461513 1.2235 2.88264
thorax -5.63992 0.530662 0.515799
lowerneck -16.4026 -2.75759 -1.70255
upperneck 20.8291 -3.13395 -1.07546
head 9.2776 -1.72035 -0.485193
rclavicle -1.93815e-015 2.06736e-014
rhumerus -30.5238 -20.437 -76.2409
rradius 22.9317
rwrist 5.24702
rhand -13.0227 19.6155
rfingers 7.12502
rthumb 13.0713 -9.9549
lclavicle -1.93815e-015 2.06736e-014
lhumerus -30.7219 3.12566 82.8143
lradius 26.7756
lwrist 5.53876
lhand -25.5171 21.7318
lfingers 7.12502
lthumb 1.01213 51.7092
rfemur -9.54327 2.69223 31.0657
rtibia 28.3803
rfoot -15.5924 -2.43113
rtoes 3.33244
lfemur -19.4253 3.24408 -14.5449
ltibia 67.4855
lfoot -4.1999 -4.04406
ltoes -6.14308
51
root 0.285417 18.196 -14.7456 -2.66115 -3.13653 -4.83745
lowerback 11.2114 0.558577 4.16071
upperback 0.470679 1.44239 2.83316
thorax -5.77578 0.633948 0.399168
lowerneck -16.5743 -2.77509 -1.53843
upperneck 20.8393 -3.15833 -1.24311
head 9.30665 -1.73735 -0.575827
rclavicle -1.95057e-014 -3.1408e-014
rhumerus -29.8726 -19.9699 -76.5665
rradius 23.3379
rwrist 5.3765
rhand -13.2247 18.8307
rfingers 7.12502
rthumb 12.8766 -10.7521
lclavicle -1.95057e-014 -3.1408e-014
lhumerus -30.938 3.19708 82.7994
lradius 26.521
lwrist 5.61299
lhand -25.8446 21.754
lfingers 7.12502
lthumb 0.695788 51.7326
rfemur -8.90552 2.74489 31.1046
rtibia 28.4388
rfoot -16.0232 -2.27091
rtoes 2.73857
lfemur -20.3485 3.51882 -14.5983
ltibia 66.7908
lfoot -4.97785 -3.47239
ltoes -7.92766
52
root 0.280412 18.1805 -14.6001 -2.60336 -3.06112 -5.03837
lowerback 11.4556 0.623367 4.5677
upperback 0.466908 1.58935 2.70472
thorax -5.89927 0.69089 0.00954194
lowerneck -16.9064 -2.87274 -1.47702
upperneck 20.9317 -3.35113 -1.04133
head 9.40244 -1.79885 -0.548196
rclavicle -8.49804e-015 -8.74653e-015
rhumerus -29.2918 -19.2988 -77.2659
rradius 24.0536
rwrist 5.18856
rhand -14.6847 18.0852
rfingers 7.12502
rthumb 11.4688 -11.5811
lclavicle -8.49804e-015 -8.74653e-015
lhumerus -31.0552 2.74046 82.8456
lradius 26.4175
lwrist 6.00944
lhand -26.0947 22.5937
lfingers 7.12502
lthumb 0.454319 52.573
rfemur -8.4999 2.67132 31.354
rtibia 28.5903
rfoot -16.5035 -2.33182
rtoes 2.8089
lfemur -21.3792 3.49139 -14.4577
ltibia 66.0462
lfoot -5.71797 -2.7531
ltoes -7.31169
53
root 0.277372 18.1739 -14.4447 -2.50159 -3.15353 -5.22129
lowerback 11.4409 0.662837 4.90145
upperback 0.473561 1.6814 2.66892
thorax -5.87082 0.726917 -0.229546
lowerneck -16.8576 -2.86782 -1.55277
upperneck 20.8885 -3.35875 -0.896614
head 9.38262 -1.79189 -0.485519
rclavicle -6.93262e-015 -7.95139e-016
rhumerus -28.7786 -18.1476 -77.9327
rradius 24.8294
rwrist 4.79152
rhand -15.5484 16.8034
rfingers 7.12502
rthumb 10.6358 -12.9074
lclavicle -6.93262e-015 -7.95139e-016
lhumerus -31.378 2.89174 82.7689
lradius 26.4838
lwrist 6.00052
lhand -26.2775 21.2125
lfingers 7.12502
lthumb 0.277712 51.1921
rfemur -8.11441 2.67998 31.5749
rtibia 28.8589
rfoot -17.1395 -2.33225
rtoes 1.27274
lfemur -22.2039 3.62496 -14.3263
ltibia 65.1263
lfoot -6.56643 -1.92487
ltoes -6.3224
54
root 0.280646 18.1515 -14.2732 -2.44117 -3.534 -5.27996
lowerback 11.1169 0.72266 4.98179
upperback 0.586937 1.74617 2.756
thorax -5.56709 0.765296 -0.187603
lowerneck -16.567 -2.79383 -1.76923
upperneck 20.6883 -3.20765 -0.87864
head 9.2638 -1.73686 -0.41705
rclavicle 2.60905e-015 -7.95139e-016
rhumerus -28.0904 -16.7641 -78.4009
rradius 25.3391
rwrist 4.23665
rhand -15.9294 17.5731
rfingers 7.12502
rthumb 10.2683 -12.1563
lclavicle 2.60905e-015 -7.95139e-016
lhumerus -31.7643 3.59882 82.666
lradius 26.5957
lwrist 5.67139
lhand -25.746 19.8254
lfingers 7.12502
lthumb 0.791063 49.8037
rfemur -7.57452 2.54776 31.6198
rtibia 29.0602
rfoot -17.7836 -2.09339
rtoes 2.20056
lfemur -22.9935 3.96404 -14.3776
ltibia 64.0033
lfoot -7.14738 -1.00643
ltoes -6.82092
55
root 0.282827 18.1329 -14.1047 -2.39133 -3.66473 -5.27272
lowerback 11.0588 0.829721 5.09617
upperback 0.582138 1.89459 2.6892
thorax -5.52795 0.835236 -0.343456
lowerneck -16.4019 -2.8213 -1.63971
upperneck 20.5569 -3.26179 -0.973367
head 9.18364 -1.76244 -0.473415
rclavicle 2.01269e-015 -1.70955e-014
rhumerus -27.7138 -16.0918 -78.6829
rradius 25.784
rwrist 3.35259
rhand -16.6857 22.0436
rfingers 7.12502
rthumb 9.53865 -7.72051
lclavicle 2.01269e-015 -1.70955e-014
lhumerus -32.1194 3.73522 82.633
lradius 26.6013
lwrist 5.7532
lhand -25.4221 20.4063
lfingers 7.12502
lthumb 1.10389 50.3832
rfemur -7.0419 2.44905 31.5918
rtibia 29.1676
rfoot -18.4063 -1.96892
rtoes 0.830967
lfemur -23.7152 4.04676 -14.5254
ltibia 62.6625
lfoot -7.55395 -0.0490486
ltoes -6.97769
56
root 0.283047 18.1287 -13.9474 -2.20221 -3.81914 -5.35193
lowerback 11.2892 1.01136 5.3741
upperback 0.448281 2.18486 2.50839
thorax -5.76947 0.960635 -0.739365
lowerneck -16.5659 -2.92134 -1.32807
upperneck 20.5383 -3.48103 -0.970233
head 9.20096 -1.83955 -0.553939
rclavicle -7.03201e-015 1.07344e-014
rhumerus -27.4271 -15.8979 -78.9522
rradius 26.0443
rwrist 2.22002
rhand -16.079 14.164
rfingers 7.12502
rthumb 10.1239 -15.5724
lclavicle -7.03201e-015 1.07344e-014
lhumerus -32.3594 3.31997 82.5924
lradius 26.4552
lwrist 6.00117
lhand -25.5264 21.7279
lfingers 7.12502
lthumb 1.00318 51.7053
rfemur -6.70136 2.4412 31.6537
rtibia 29.248
rfoot -18.8053 -1.8882
rtoes 2.67627
lfemur -24.5048 4.16007 -14.5586
ltibia 61.0832
lfoot -7.88398 0.631841
ltoes -5.84575
57
root 0.284144 18.1193 -13.7879 -2.06874 -4.28895 -5.60358
lowerback 11.4643 1.1788 5.68746
upperback 0.442163 2.46217 2.52564
thorax -5.84867 1.08581 -0.944273
lowerneck -16.8587 -2.95128 -1.36352
upperneck 20.5767 -3.52436 -0.897619
head 9.27024 -1.8537 -0.534381
rclavicle -1.6201e-014 0
rhumerus -27.017 -15.1874 -79.1943
rradius 26.3715
rwrist 1.64936
rhand -16.1576 13.1956
rfingers 7.12502
rthumb 10.0481 -16.5445
lclavicle -1.6201e-014 0
lhumerus -32.58 3.53236 82.564
lradius 26.3739
lwrist 6.12801
lhand -26.1493 22.3134
lfingers 7.12502
lthumb 0.401508 52.2927
rfemur -6.19054 2.57463 31.9004
rtibia 29.1607
rfoot -19.2128 -1.68873
rtoes 2.28528
lfemur -25.1784 4.58881 -14.3661
ltibia 59.3915
lfoot -8.05309 1.25887
ltoes -4.79412
